<svg xmlns="http://www.w3.org/2000/svg" viewBox="0 0 22.02 23.69"><defs><style>.cls-1{fill:#ccc;}</style></defs><g id="Layer_2" data-name="Layer 2"><g id="Layer_1-2" data-name="Layer 1"><path class="cls-1" d="M21.15,8.91a3.92,3.92,0,0,0-5.5-.57A4.1,4.1,0,0,0,15,9L7.58,5.26a3.76,3.76,0,0,0,.22-1A3.93,3.93,0,0,0,4.31,0,3.85,3.85,0,0,0,1.45.88,3.86,3.86,0,0,0,0,3.51a3.93,3.93,0,0,0,3.49,4.3A4.28,4.28,0,0,0,4.8,7.73a3.9,3.9,0,0,0,2-1.21A3,3,0,0,0,7,6.24l7.43,3.7a4.43,4.43,0,0,0-.25,1,3.89,3.89,0,0,0,.23,1.77L8.29,17.31a3.92,3.92,0,0,0-5.5-.57,3.92,3.92,0,0,0,2.06,6.93,4.3,4.3,0,0,0,1.3-.08,3.91,3.91,0,0,0,2.72-5.31L15,13.73a3.89,3.89,0,0,0,2.72,1.53,3.79,3.79,0,0,0,1.3-.08,3.85,3.85,0,0,0,1.57-.77,3.92,3.92,0,0,0,.57-5.5ZM3.62,6.69A2.79,2.79,0,0,1,2.15,1.75a2.88,2.88,0,0,1,1.12-.56,2.88,2.88,0,0,1,.93-.06,2.8,2.8,0,0,1-.58,5.56ZM8,20.07a2.79,2.79,0,1,1-3.42-3A2.63,2.63,0,0,1,5.55,17,2.8,2.8,0,0,1,8,20.07Zm12.85-8.41a2.76,2.76,0,0,1-3.07,2.49,2.78,2.78,0,0,1-1.93-1.08,2.84,2.84,0,0,1-.49-1,2.68,2.68,0,0,1-.07-.94,2.3,2.3,0,0,1,.15-.64,2.67,2.67,0,0,1,.58-1,3.71,3.71,0,0,1,.29-.27,2.79,2.79,0,0,1,1.12-.55,2.88,2.88,0,0,1,.93-.06,2.78,2.78,0,0,1,1.88,1,2.73,2.73,0,0,1,.55,1.12A2.9,2.9,0,0,1,20.89,11.66Z"/></g></g></svg>